<svg width="512" height="512" viewBox="0 0 512 512" xmlns="http://www.w3.org/2000/svg">
  <rect x="40" y="40" width="432" height="432" rx="124" fill="url(#g)" />
  <circle cx="256" cy="256" r="166" fill="rgba(255,255,255,.08)" stroke="rgba(255,255,255,.18)" stroke-width="10" />

  <g transform="translate(256 236)">
    <path
      d="M-94 -88C-82 -118 -50 -136 -24 -118L-6 -106C4 -100 16 -100 26 -106L44 -118C70 -136 102 -118 114 -88L100 -58C92 -42 74 -32 56 -32H-36C-54 -32 -72 -42 -80 -58Z"
      fill="#ffc3d1"
    />
    <ellipse cx="0" cy="18" rx="112" ry="96" fill="#ffd3dd" />
    <ellipse cx="-40" cy="-6" rx="18" ry="24" fill="#1d1d1f" />
    <ellipse cx="40" cy="-6" rx="18" ry="24" fill="#1d1d1f" />
    <ellipse cx="-46" cy="-12" rx="5" ry="7" fill="#ffffff" opacity=".88" />
    <ellipse cx="34" cy="-12" rx="5" ry="7" fill="#ffffff" opacity=".88" />
    <ellipse cx="0" cy="40" rx="48" ry="34" fill="#f6a3b8" stroke="#e48ea5" stroke-width="4" />
    <ellipse cx="-18" cy="40" rx="7" ry="10" fill="#b85f7a" />
    <ellipse cx="18" cy="40" rx="7" ry="10" fill="#b85f7a" />
    <path d="M-18 76C-6 84 6 84 18 76" fill="none" stroke="#b85f7a" stroke-width="6" stroke-linecap="round" />
    <path d="M-69 -78L-39 -96L-24 -60Z" fill="#f39ab3" />
    <path d="M69 -78L39 -96L24 -60Z" fill="#f39ab3" />
  </g>

  <text
    x="256"
    y="376"
    text-anchor="middle"
    font-size="30"
    font-family="Arial, sans-serif"
    font-weight="800"
    fill="#fff"
    letter-spacing="1.2"
  >
    PIX KIDS
  </text>

  <defs>
    <radialGradient id="g" cx="0" cy="0" r="1" gradientUnits="userSpaceOnUse" gradientTransform="translate(108 104) rotate(39) scale(480)">
      <stop stop-color="#ff6b6b" />
      <stop offset=".18" stop-color="#ffb347" />
      <stop offset=".4" stop-color="#ffe066" />
      <stop offset=".62" stop-color="#4dd599" />
      <stop offset=".82" stop-color="#4d96ff" />
      <stop offset="1" stop-color="#8b5cf6" />
    </radialGradient>
  </defs>
</svg>
