<svg width="512" height="512" viewBox="0 0 512 512" fill="none" xmlns="http://www.w3.org/2000/svg">
  <rect x="44" y="44" width="424" height="424" rx="120" fill="url(#bg)"/>
  <circle cx="256" cy="282" r="122" fill="#FFB3CC"/>
  <ellipse cx="162" cy="184" rx="40" ry="52" fill="#FF97B8"/>
  <ellipse cx="350" cy="184" rx="40" ry="52" fill="#FF97B8"/>
  <ellipse cx="208" cy="260" rx="17" ry="21" fill="#3E2A33"/>
  <ellipse cx="304" cy="260" rx="17" ry="21" fill="#3E2A33"/>
  <circle cx="200" cy="252" r="5" fill="white"/>
  <circle cx="296" cy="252" r="5" fill="white"/>
  <ellipse cx="256" cy="318" rx="64" ry="46" fill="#FF97B8"/>
  <ellipse cx="233" cy="318" rx="9" ry="12" fill="#D9678B"/>
  <ellipse cx="279" cy="318" rx="9" ry="12" fill="#D9678B"/>
  <path d="M226 352C240 364 272 364 286 352" stroke="#D9678B" stroke-width="10" stroke-linecap="round"/>
  <path d="M346 122C358 108 378 108 390 122C402 136 402 156 376 180L368 186L360 180C334 156 334 136 346 122Z" fill="#FF5B7F"/>
  <defs>
    <linearGradient id="bg" x1="92" y1="88" x2="420" y2="428" gradientUnits="userSpaceOnUse">
      <stop stop-color="#FFE066"/>
      <stop offset="0.5" stop-color="#FF9BD1"/>
      <stop offset="1" stop-color="#7C83FD"/>
    </linearGradient>
  </defs>
</svg>
